PathFileType	4	(X/Y/Z)	output.trc
DataRate	CameraRate	NumFrames	NumMarkers	Units	OrigDataRate	OrigDataStartFrame	OrigNumFrames
100	100	12	23	m	100	2094	5582
Frame#	Time	C7			T8			EL			EM			US			RS			AA			Fore_Clus_1			Fore_Clus_2			Fore_Clus_3			Fore_Clus_4			Hum_Clus_1			Hum_Clus_2			Hum_Clus_3			Hum_Clus_4			Thor_Clus_1			Thor_Clus_2			Thor_Clus_3			Thor_Clus_4			IJ			PX			GH			Thor_Clus_5		
		X1	Y1	Z1	X2	Y2	Z2	X3	Y3	Z3	X4	Y4	Z4	X5	Y5	Z5	X6	Y6	Z6	X7	Y7	Z7	X8	Y8	Z8	X9	Y9	Z9	X10	Y10	Z10	X11	Y11	Z11	X12	Y12	Z12	X13	Y13	Z13	X14	Y14	Z14	X15	Y15	Z15	X16	Y16	Z16	X17	Y17	Z17	X18	Y18	Z18	X19	Y19	Z19	X20	Y20	Z20	X21	Y21	Z21	X22	Y22	Z22	X23	Y23	Z23
2093	20.930000	-0.077359	1.365270	-0.095369	-0.089804	1.160047	-0.143505	-0.202801	1.000281	0.124028	-0.177646	0.982421	0.073553	-0.096799	0.972192	0.320034	-0.134526	1.003826	0.335432	-0.197206	1.280984	0.042440	-0.137617	0.940411	0.288599	-0.120824	0.940399	0.341833	-0.140668	0.960828	0.345907	-0.171632	0.968049	0.298191	-0.218820	1.119277	0.132655	-0.247746	1.114381	0.079993	-0.256358	1.175998	0.066689	-0.221645	1.190599	0.112056	0.052252	1.270522	0.020625	0.017188	1.215519	0.074142	0.015787	1.265867	0.045779	0.069659	1.221832	0.037485	-0.007777	1.287216	-0.008213	0.019636	1.091171	0.021142	-0.161718	1.254736	0.018309	0.009267	1.237049	0.066457
2094	20.940000	-0.077373	1.365192	-0.095415	-0.089816	1.159920	-0.143345	-0.201790	1.000040	0.123701	-0.176624	0.982369	0.073165	-0.096958	0.971317	0.320342	-0.135132	1.002502	0.335549	-0.197110	1.281018	0.042558	-0.137216	0.939489	0.288176	-0.122161	0.938833	0.341642	-0.141066	0.959485	0.345538	-0.171596	0.966687	0.297596	-0.218142	1.118943	0.132649	-0.247164	1.114068	0.079963	-0.255992	1.175710	0.066850	-0.221221	1.190304	0.112164	0.052314	1.270582	0.020579	0.017388	1.215675	0.074159	0.015873	1.265945	0.045769	0.069743	1.221915	0.037521	-0.007716	1.287233	-0.008232	0.019750	1.091221	0.021293	-0.161726	1.254846	0.018435	0.009344	1.237166	0.066480
2095	20.950000	-0.077390	1.365106	-0.095463	-0.089823	1.159786	-0.143190	-0.200850	0.999823	0.123394	-0.175657	0.982328	0.072811	-0.097094	0.970439	0.320645	-0.135673	1.001226	0.335642	-0.197014	1.281038	0.042673	-0.136867	0.938636	0.287734	-0.122486	0.937847	0.341339	-0.141416	0.958193	0.345082	-0.171587	0.965348	0.297178	-0.217534	1.118624	0.132605	-0.246598	1.113790	0.079938	-0.255643	1.175422	0.067000	-0.220868	1.190033	0.112252	0.052392	1.270657	0.020570	0.017509	1.215760	0.074184	0.015953	1.266024	0.045760	0.069859	1.222005	0.037473	-0.007657	1.287244	-0.008255	0.019871	1.091266	0.021436	-0.161711	1.254953	0.018566	0.009442	1.237222	0.066500
2096	20.960000	-0.077408	1.365019	-0.095512	-0.089832	1.159653	-0.143042	-0.199985	0.999629	0.123107	-0.174746	0.982301	0.072488	-0.097213	0.969577	0.320937	-0.136155	1.000014	0.335708	-0.196916	1.281053	0.042785	-0.136503	0.937912	0.287241	-0.122191	0.936895	0.340693	-0.141712	0.957059	0.344833	-0.171664	0.964197	0.296607	-0.216994	1.118342	0.132456	-0.246081	1.113561	0.079935	-0.255329	1.175176	0.067112	-0.220515	1.189773	0.112290	0.052588	1.270651	0.020479	0.017628	1.215820	0.074200	0.016067	1.266099	0.045747	0.069972	1.222090	0.037462	-0.007597	1.287252	-0.008282	0.019993	1.091307	0.021570	-0.161671	1.255060	0.018708	0.009554	1.237307	0.066537
2097	20.970000	-0.077429	1.364932	-0.095559	-0.089838	1.159521	-0.142901	-0.199198	0.999458	0.122842	-0.173897	0.982284	0.072202	-0.097317	0.968747	0.321207	-0.136579	0.998886	0.335741	-0.196819	1.281058	0.042896	-0.136282	0.937096	0.286872	-0.121639	0.936378	0.340279	-0.142106	0.955926	0.344388	-0.171706	0.963201	0.295882	-0.216496	1.118084	0.132128	-0.245671	1.113346	0.079879	-0.255044	1.174958	0.067157	-0.220217	1.189575	0.112351	0.052748	1.270671	0.020399	0.017739	1.215896	0.074228	0.016169	1.266171	0.045726	0.070088	1.222176	0.037478	-0.007537	1.287257	-0.008311	0.020120	1.091345	0.021692	-0.161605	1.255166	0.018860	0.009608	1.237421	0.066600
2098	20.980000	-0.077452	1.364848	-0.095603	-0.089843	1.159396	-0.142770	-0.198488	0.999311	0.122598	-0.173106	0.982280	0.071950	-0.097410	0.967967	0.321447	-0.136952	0.997856	0.335736	-0.196723	1.281056	0.043005	-0.136039	0.936515	0.286572	-0.121544	0.935768	0.340026	-0.142445	0.954939	0.344104	-0.171744	0.962162	0.295416	-0.216115	1.117911	0.132101	-0.245249	1.113151	0.079788	-0.254768	1.174779	0.067175	-0.219989	1.189402	0.112385	0.052867	1.270701	0.020346	0.017892	1.215979	0.074226	0.016306	1.266244	0.045697	0.070218	1.222255	0.037406	-0.007479	1.287262	-0.008342	0.020249	1.091381	0.021799	-0.161512	1.255274	0.019023	0.009860	1.237563	0.066577
2099	20.990000	-0.077476	1.364772	-0.095641	-0.089850	1.159283	-0.142649	-0.197852	0.999186	0.122374	-0.172372	0.982289	0.071731	-0.097500	0.967252	0.321650	-0.137284	0.996935	0.335694	-0.196627	1.281053	0.043114	-0.135835	0.935894	0.286157	-0.121343	0.935371	0.339773	-0.142665	0.954096	0.343799	-0.171805	0.961309	0.294989	-0.215801	1.117728	0.132019	-0.244873	1.112987	0.079708	-0.254537	1.174614	0.067161	-0.219800	1.189224	0.112422	0.053087	1.270664	0.020259	0.018013	1.216017	0.074291	0.016410	1.266302	0.045678	0.070373	1.222334	0.037386	-0.007421	1.287267	-0.008373	0.020377	1.091415	0.021892	-0.161394	1.255384	0.019197	0.010100	1.237484	0.066513
2100	21.000000	-0.077501	1.364705	-0.095672	-0.089856	1.159182	-0.142538	-0.197288	0.999083	0.122170	-0.171690	0.982310	0.071545	-0.097588	0.966615	0.321809	-0.137581	0.996131	0.335612	-0.196532	1.281045	0.043221	-0.135660	0.935385	0.285871	-0.122065	0.934367	0.339725	-0.142967	0.953345	0.343559	-0.171826	0.960556	0.294551	-0.215550	1.117556	0.131956	-0.244531	1.112834	0.079590	-0.254325	1.174437	0.067097	-0.219674	1.189075	0.112434	0.053169	1.270723	0.020201	0.018173	1.216090	0.074277	0.016545	1.266389	0.045610	0.070485	1.222403	0.037360	-0.007365	1.287275	-0.008403	0.020504	1.091449	0.021969	-0.161254	1.255497	0.019382	0.010251	1.237537	0.066487
2101	21.010000	-0.077525	1.364653	-0.095695	-0.089866	1.159101	-0.142437	-0.196785	0.999002	0.121983	-0.171049	0.982345	0.071390	-0.097686	0.966067	0.321924	-0.137859	0.995444	0.335495	-0.196440	1.281044	0.043328	-0.135420	0.934947	0.285561	-0.122156	0.933949	0.339592	-0.143316	0.952637	0.343249	-0.171858	0.959863	0.294207	-0.215379	1.117420	0.131944	-0.244193	1.112677	0.079434	-0.254166	1.174293	0.067032	-0.219598	1.188938	0.112439	0.053231	1.270766	0.020159	0.018319	1.216135	0.074257	0.016609	1.266441	0.045677	0.070615	1.222474	0.037270	-0.007310	1.287287	-0.008432	0.020625	1.091485	0.022031	-0.161093	1.255617	0.019578	0.010327	1.237687	0.066589
2102	21.020000	-0.077548	1.364615	-0.095710	-0.089878	1.159038	-0.142345	-0.196335	0.998942	0.121813	-0.170441	0.982395	0.071264	-0.097794	0.965614	0.321992	-0.138127	0.994872	0.335346	-0.196350	1.281047	0.043435	-0.135775	0.934621	0.285323	-0.122308	0.933460	0.339519	-0.143552	0.952017	0.343064	-0.171923	0.959302	0.293846	-0.215245	1.117347	0.132066	-0.243906	1.112550	0.079282	-0.253881	1.174182	0.066754	-0.219552	1.188831	0.112418	0.053302	1.270793	0.020099	0.018451	1.216202	0.074295	0.016695	1.266448	0.045598	0.070687	1.222505	0.037206	-0.007257	1.287305	-0.008458	0.020740	1.091524	0.022079	-0.160917	1.255744	0.019781	0.010464	1.237597	0.066434
2103	21.030000	-0.077569	1.364593	-0.095717	-0.089893	1.158995	-0.142261	-0.195926	0.998904	0.121657	-0.169855	0.982460	0.071166	-0.097920	0.965259	0.322015	-0.138398	0.994406	0.335172	-0.196263	1.281059	0.043541	-0.132460	0.933683	0.285015	-0.122381	0.933052	0.339445	-0.143780	0.951447	0.342876	-0.171945	0.958641	0.293491	-0.215120	1.117267	0.131932	-0.243668	1.112485	0.079125	-0.253568	1.174104	0.066430	-0.219531	1.188770	0.112367	0.053342	1.270814	0.020047	0.018583	1.216260	0.074301	0.016787	1.266461	0.045533	0.070778	1.222531	0.037114	-0.007206	1.287331	-0.008481	0.020846	1.091566	0.022115	-0.160728	1.255880	0.019989	0.010527	1.237639	0.066409
2104	21.040000	-0.077587	1.364589	-0.095716	-0.089915	1.158974	-0.142184	-0.195545	0.998887	0.121514	-0.169276	0.982543	0.071092	-0.098070	0.965002	0.322001	-0.138688	0.994033	0.334981	-0.196180	1.281086	0.043647	-0.131224	0.933233	0.284867	-0.122435	0.932819	0.339354	-0.143993	0.950925	0.342633	-0.171977	0.958097	0.293198	-0.215016	1.117231	0.131818	-0.243411	1.112441	0.078915	-0.253402	1.174032	0.066257	-0.219539	1.188738	0.112285	0.053433	1.270824	0.019976	0.018658	1.216300	0.074271	0.016858	1.266506	0.045496	0.070858	1.222570	0.037022	-0.007157	1.287365	-0.008500	0.020941	1.091614	0.022143	-0.160533	1.256029	0.020202	0.010613	1.237667	0.066363
